# xmcd CD database file
# Copyright (C) 1993-1998 Ti Kan
#
# Track frame offsets:
#	150
#	20116
#	39183
#	51695
#	75668
#	91205
#	111443
#	131144
#	149642
#	162754
#	182443
#	202515
#	216501
#	232327
#
# Disc length: 3285 seconds
#
# Revision: 1
# Processed by: cddbd v1.4b41PL1 Copyright (c) Steve Scherf et al.
# Submitted via: CDValet v3.31 - Copyright (c) 1997 Greg Leichner
#
DISCID=cc0cd30e
DTITLE=Greg Jacobs - South Of Muskogee Town
DYEAR=1900
DGENRE=
TTITLE0=A Little Rain Will Do
TTITLE1=Looking For A Woman When I Found You
TTITLE2=Strange Kind Of Night
TTITLE3=South Of Muskogee Town
TTITLE4=Drifter's Dream
TTITLE5=Can't Help Thinking Of You
TTITLE6=Patient Man
TTITLE7=All The Answers
TTITLE8=I'm Not Afraid Of The Blues
TTITLE9=A Little At A time
TTITLE10=Let's Pretend
TTITLE11=River Run Dry
TTITLE12=Used To Be
TTITLE13=Okie Wind
EXTD=
EXTT0=
EXTT1=
EXTT2=
EXTT3=
EXTT4=
EXTT5=
EXTT6=
EXTT7=
EXTT8=
EXTT9=
EXTT10=
EXTT11=
EXTT12=
EXTT13=
PLAYORDER=
